<svg xmlns="http://www.w3.org/2000/svg" xmlns:xlink="http://www.w3.org/1999/xlink" viewBox="294 498 427 164">
  <defs>
    <style>
      .cls-1 {
        fill: none;
      }

      .cls-2, .cls-6, .cls-7 {
        stroke: #000;
      }

      .cls-3 {
        clip-path: url(#clip-path);
      }

      .cls-4 {
        fill: #fff;
      }

      .cls-5 {
        clip-path: url(#clip-path-2);
      }

      .cls-6 {
        font-size: 53px;
      }

      .cls-6, .cls-7, .cls-8 {
        font-family: Bazaronite;
      }

      .cls-7 {
        font-size: 56px;
      }

      .cls-8 {
        font-size: 55px;
      }

      .cls-9 {
        stroke: none;
      }
    </style>
    <clipPath id="clip-path">
      <rect class="cls-1" width="390" height="36"/>
    </clipPath>
    <clipPath id="clip-path-2">
      <rect class="cls-1" width="422" height="77"/>
    </clipPath>
  </defs>
  <g id="Group_1" data-name="Group 1" transform="translate(-45 26)">
    <g id="Rectangle_1" data-name="Rectangle 1" class="cls-2" transform="translate(339 472)">
      <rect class="cls-9" width="427" height="163"/>
      <rect class="cls-1" x="0.5" y="0.5" width="426" height="162"/>
    </g>
    <g id="Repeat_Grid_1" data-name="Repeat Grid 1" class="cls-3" transform="translate(362 478)">
      <g transform="translate(-354 -480)">
        <rect id="Rectangle_2" data-name="Rectangle 2" class="cls-4" width="34" height="29" transform="translate(354 480)"/>
      </g>
      <g transform="translate(-296 -480)">
        <rect id="Rectangle_2-2" data-name="Rectangle 2" class="cls-4" width="34" height="29" transform="translate(354 480)"/>
      </g>
      <g transform="translate(-238 -480)">
        <rect id="Rectangle_2-3" data-name="Rectangle 2" class="cls-4" width="34" height="29" transform="translate(354 480)"/>
      </g>
      <g transform="translate(-180 -480)">
        <rect id="Rectangle_2-4" data-name="Rectangle 2" class="cls-4" width="34" height="29" transform="translate(354 480)"/>
      </g>
      <g transform="translate(-122 -480)">
        <rect id="Rectangle_2-5" data-name="Rectangle 2" class="cls-4" width="34" height="29" transform="translate(354 480)"/>
      </g>
      <g transform="translate(-64 -480)">
        <rect id="Rectangle_2-6" data-name="Rectangle 2" class="cls-4" width="34" height="29" transform="translate(354 480)"/>
      </g>
      <g transform="translate(-6 -480)">
        <rect id="Rectangle_2-7" data-name="Rectangle 2" class="cls-4" width="34" height="29" transform="translate(354 480)"/>
      </g>
    </g>
    <g id="Repeat_Grid_3" data-name="Repeat Grid 3" class="cls-5" transform="translate(342 516)">
      <g transform="translate(-362 -513)">
        <rect id="Rectangle_3" data-name="Rectangle 3" class="cls-4" width="90" height="77" rx="11" transform="translate(362 513)"/>
      </g>
      <g transform="translate(-252 -513)">
        <rect id="Rectangle_3-2" data-name="Rectangle 3" class="cls-4" width="90" height="77" rx="11" transform="translate(362 513)"/>
      </g>
      <g transform="translate(-142 -513)">
        <rect id="Rectangle_3-3" data-name="Rectangle 3" class="cls-4" width="90" height="77" rx="11" transform="translate(362 513)"/>
      </g>
      <g transform="translate(-32 -513)">
        <rect id="Rectangle_3-4" data-name="Rectangle 3" class="cls-4" width="90" height="77" rx="11" transform="translate(362 513)"/>
      </g>
    </g>
    <g id="Repeat_Grid_2" data-name="Repeat Grid 2" class="cls-3" transform="translate(362 600)">
      <g transform="translate(-354 -480)">
        <rect id="Rectangle_2-8" data-name="Rectangle 2" class="cls-4" width="34" height="29" transform="translate(354 480)"/>
      </g>
      <g transform="translate(-296 -480)">
        <rect id="Rectangle_2-9" data-name="Rectangle 2" class="cls-4" width="34" height="29" transform="translate(354 480)"/>
      </g>
      <g transform="translate(-238 -480)">
        <rect id="Rectangle_2-10" data-name="Rectangle 2" class="cls-4" width="34" height="29" transform="translate(354 480)"/>
      </g>
      <g transform="translate(-180 -480)">
        <rect id="Rectangle_2-11" data-name="Rectangle 2" class="cls-4" width="34" height="29" transform="translate(354 480)"/>
      </g>
      <g transform="translate(-122 -480)">
        <rect id="Rectangle_2-12" data-name="Rectangle 2" class="cls-4" width="34" height="29" transform="translate(354 480)"/>
      </g>
      <g transform="translate(-64 -480)">
        <rect id="Rectangle_2-13" data-name="Rectangle 2" class="cls-4" width="34" height="29" transform="translate(354 480)"/>
      </g>
      <g transform="translate(-6 -480)">
        <rect id="Rectangle_2-14" data-name="Rectangle 2" class="cls-4" width="34" height="29" transform="translate(354 480)"/>
      </g>
    </g>
    <text id="W" class="cls-6" transform="translate(363.5 571.5)"><tspan x="0" y="0">W</tspan></text>
    <text id="H" class="cls-7" transform="translate(479 573)"><tspan x="0" y="0">H</tspan></text>
    <text id="I" class="cls-8" transform="translate(594 572)"><tspan x="0" y="0">I</tspan></text>
    <text id="A" class="cls-6" transform="translate(701 571)"><tspan x="0" y="0">A</tspan></text>
  </g>
</svg>
